<svg xmlns="http://www.w3.org/2000/svg" viewBox="0 0 26 26" fill="currentColor">
  <path d="M12.1555 0.818897C12.1555 0.366633 12.5221 0 12.9744 0C13.4267 0 13.7933 0.366633 13.7933 0.818897V25.1811C13.7933 25.6334 13.4267 26 12.9744 26C12.5221 26 12.1555 25.6334 12.1555 25.1811V0.818897Z"/>
  <path d="M1.51522 2.68744C1.19542 2.36764 1.19542 1.84914 1.51522 1.52934C1.83502 1.20954 2.35352 1.20954 2.67332 1.52934L24.4962 23.3522C24.816 23.672 24.816 24.1905 24.4962 24.5103C24.1764 24.8301 23.6579 24.8301 23.3381 24.5103L1.51522 2.68744Z"/>
  <path d="M23.3381 1.5293C23.6579 1.2095 24.1764 1.2095 24.4962 1.5293C24.816 1.8491 24.816 2.3676 24.4962 2.68739L2.67334 24.5103C2.35354 24.8301 1.83505 24.8301 1.51525 24.5103C1.19545 24.1905 1.19545 23.672 1.51525 23.3522L23.3381 1.5293Z"/>
  <path d="M25.1811 12.2067C25.6334 12.2067 26 12.5733 26 13.0256C26 13.4779 25.6334 13.8445 25.1811 13.8445L0.818897 13.8445C0.366633 13.8445 0 13.4779 0 13.0256C0 12.5733 0.366633 12.2067 0.818897 12.2067L25.1811 12.2067Z"/>
</svg>
